<svg width="14" height="19" viewBox="0 0 14 19" fill="none" xmlns="http://www.w3.org/2000/svg">
<path d="M12.857 8.36957L7.88525 0.452569C7.81312 0.351327 7.71783 0.268791 7.60733 0.211842C7.49683 0.154894 7.37431 0.125181 7.25 0.125181C7.12569 0.125181 7.00318 0.154894 6.89267 0.211842C6.78217 0.268791 6.68688 0.351327 6.61475 0.452569L1.6205 8.40707C0.926664 9.52627 0.540174 10.8086 0.5 12.1248C0.5 13.915 1.21116 15.6319 2.47703 16.8978C3.7429 18.1637 5.45979 18.8748 7.25 18.8748C9.04021 18.8748 10.7571 18.1637 12.023 16.8978C13.2888 15.6319 14 13.915 14 12.1248C13.9569 10.7942 13.5625 9.4986 12.857 8.36957ZM7.25 17.3748C5.85816 17.373 4.52384 16.8193 3.53966 15.8352C2.55548 14.851 2.00179 13.5167 2 12.1248C2.03986 11.076 2.3549 10.0561 2.9135 9.16757L3.61475 8.05007L11.1702 15.6056C10.6795 16.1615 10.0763 16.6068 9.4004 16.912C8.72454 17.2171 7.99155 17.3744 7.25 17.3748Z" fill="white"/>
</svg>
